<?xml version="1.0" encoding="utf-8"?>
<!-- Generator: Adobe Illustrator 13.0.2, SVG Export Plug-In . SVG Version: 6.00 Build 14948)  -->
<!DOCTYPE svg PUBLIC "-//W3C//DTD SVG 1.0//EN" "http://www.w3.org/TR/2001/REC-SVG-20010904/DTD/svg10.dtd">
<svg version="1.0" id="Layer_1" xmlns="http://www.w3.org/2000/svg" xmlns:xlink="http://www.w3.org/1999/xlink" x="0px" y="0px"
	 width="64px" height="64px" viewBox="5.5 -3.5 64 64" enable-background="new 5.5 -3.5 64 64" xml:space="preserve">
<g>
	<circle fill="#FFFFFF" cx="37.564" cy="28.288" r="29.013"/>
	<g>
		<path d="M37.443-3.5c8.951,0,16.531,3.105,22.742,9.315C66.393,11.987,69.5,19.548,69.5,28.5c0,8.954-3.049,16.457-9.145,22.514
			C53.918,57.338,46.279,60.5,37.443,60.5c-8.649,0-16.153-3.143-22.514-9.43C8.644,44.786,5.5,37.264,5.5,28.501
			c0-8.723,3.144-16.285,9.429-22.685C21.138-0.395,28.643-3.5,37.443-3.5z M37.557,2.272c-7.276,0-13.428,2.572-18.457,7.715
			c-5.22,5.296-7.829,11.467-7.829,18.513c0,7.125,2.59,13.257,7.77,18.4c5.181,5.182,11.352,7.771,18.514,7.771
			c7.123,0,13.334-2.608,18.629-7.828c5.029-4.876,7.543-10.989,7.543-18.343c0-7.313-2.553-13.485-7.656-18.513
			C51.004,4.842,44.832,2.272,37.557,2.272z M49.615,20.956v5.486H26.358v-5.486H49.615z M49.615,31.243v5.483H26.358v-5.483H49.615
			z"/>
	</g>
</g>
</svg>
