<?xml version="1.0" encoding="UTF-8" standalone="no"?>
<svg
   xmlns:dc="http://purl.org/dc/elements/1.1/"
   xmlns:cc="http://creativecommons.org/ns#"
   xmlns:rdf="http://www.w3.org/1999/02/22-rdf-syntax-ns#"
   xmlns:svg="http://www.w3.org/2000/svg"
   xmlns="http://www.w3.org/2000/svg"
   xmlns:sodipodi="http://sodipodi.sourceforge.net/DTD/sodipodi-0.dtd"
   xmlns:inkscape="http://www.inkscape.org/namespaces/inkscape"
   version="1.1"
   id="Logo"
   x="0"
   y="0"
   viewBox="0 0 1500 551.72415"
   xml:space="preserve"
   width="1000"
   height="367.8161"
   sodipodi:docname="Unity_2021.svg"
   inkscape:version="1.0.2 (e86c870879, 2021-01-15)"><metadata
     id="metadata19"><rdf:RDF><cc:Work
         rdf:about=""><dc:format>image/svg+xml</dc:format><dc:type
           rdf:resource="http://purl.org/dc/dcmitype/StillImage" /></cc:Work></rdf:RDF></metadata><defs
     id="defs17" /><sodipodi:namedview
     pagecolor="#ffffff"
     bordercolor="#666666"
     borderopacity="1"
     objecttolerance="10"
     gridtolerance="10"
     guidetolerance="10"
     inkscape:pageopacity="0"
     inkscape:pageshadow="2"
     inkscape:window-width="1366"
     inkscape:window-height="705"
     id="namedview15"
     showgrid="false"
     inkscape:zoom="0.5"
     inkscape:cx="481.73464"
     inkscape:cy="72.632202"
     inkscape:window-x="-8"
     inkscape:window-y="-8"
     inkscape:window-maximized="1"
     inkscape:current-layer="Logo" /><style
     id="style2">.st0{fill:#4c4c4c}</style><g
     id="g849"><path
       d="M 617.24138,300 V 143.67816 h 65.51724 v 158.62069 c 0,26.43678 13.7931,43.67816 45.97701,43.67816 29.88506,0 44.82759,-18.3908 44.82759,-44.82758 V 143.67816 h 65.51724 V 300 c 0,60.91954 -36.78161,97.70115 -110.34483,97.70115 C 654.02299,398.85057 617.24138,362.06897 617.24138,300 Z m 251.72414,-96.55172 h 58.62069 v 26.43678 h 1.14942 c 13.79311,-20.68966 32.18391,-31.03449 58.62069,-31.03449 41.37928,0 65.51728,29.88506 65.51728,72.4138 v 122.9885 H 991.95402 V 282.75862 c 0,-19.54023 -10.34482,-33.33333 -29.88505,-33.33333 -19.54023,0 -33.33334,17.24138 -33.33334,40.22988 v 104.5977 H 867.81609 V 203.44828 Z M 1083.908,128.73563 h 60.9196 v 49.42529 h -60.9196 z m 0,74.71265 h 60.9196 v 189.65517 h -60.9196 z m 108.046,140.22988 v -90.8046 h -25.2873 v -49.42528 h 25.2873 v -59.77012 h 58.6207 v 59.77012 h 34.4828 v 49.42528 h -34.4828 v 78.16092 c 0,14.94253 8.046,18.39081 20.6897,18.39081 h 13.7931 v 43.67816 c -5.7472,1.14942 -17.2414,3.44827 -33.3334,3.44827 -34.4827,0 -59.7701,-11.49425 -59.7701,-52.87356 z m 131.0345,65.51724 h 20.6897 c 17.2413,0 25.2873,-6.89655 25.2873,-19.54023 0,-8.04597 -3.4483,-19.54023 -11.4942,-39.08046 L 1301.1494,204.5977 h 63.2184 l 25.2874,80.45977 c 5.7471,18.39081 11.4942,43.67816 11.4942,43.67816 h 1.1495 c 0,0 5.7471,-25.28735 11.4942,-43.67816 l 25.2874,-80.45977 H 1500 l -65.5172,191.95402 c -14.9426,44.82759 -33.3334,59.77012 -71.2644,59.77012 h -39.0805 z"
       id="path4"
       style="stroke-width:11.4943" /><path
       class="st0"
       d="M 488.50575,386.2069 V 128.73563 L 265.51724,0 v 98.850575 l 87.35632,50.574715 c 3.44828,2.29885 3.44828,6.89655 0,8.04597 l -103.44827,59.77012 c -3.44828,2.29885 -6.89655,1.14942 -9.1954,0 L 136.78161,157.47126 c -3.44828,-1.14942 -3.44828,-6.89655 0,-8.04597 L 224.13793,98.850575 V 0 L 0,128.73563 v 257.47127 -1.14943 1.14943 L 85.057471,336.78161 V 235.63218 c 0,-3.44827 4.597701,-5.74712 6.896552,-4.5977 L 195.4023,290.8046 c 3.44827,2.29885 4.5977,4.5977 4.5977,8.04597 V 418.3908 c 0,3.44828 -4.5977,5.74713 -6.89655,4.59771 L 105.74713,372.41379 20.689655,421.83908 243.67816,551.72414 466.66667,422.98851 381.6092,373.56322 294.25287,424.13793 c -3.44827,2.29885 -6.89655,0 -6.89655,-4.5977 V 300 c 0,-3.44828 2.29885,-6.89655 4.5977,-8.04598 L 395.4023,232.18391 c 3.44827,-2.29885 6.89655,0 6.89655,4.5977 v 101.14942 z"
       id="path6"
       style="stroke-width:11.4943" /><path
       d="M 243.67816,551.72414 466.66667,422.98851 381.6092,373.56322 294.25287,424.13793 c -3.44827,2.29885 -6.89655,0 -6.89655,-4.5977 V 300 c 0,-3.44828 2.29885,-6.89655 4.5977,-8.04598 L 395.4023,232.18391 c 3.44827,-2.29885 6.89655,0 6.89655,4.5977 v 101.14942 l 85.05747,49.42529 V 128.73563 L 243.67816,270.11494 Z"
       id="path8"
       style="stroke-width:11.4943" /><path
       d="m 265.51724,0 v 98.850575 l 87.35632,50.574715 c 3.44828,2.29885 3.44828,6.89655 0,8.04597 l -103.44827,59.77012 c -3.44828,2.29885 -6.89655,1.14942 -9.1954,0 L 136.78161,157.47126 c -3.44828,-1.14942 -3.44828,-6.89655 0,-8.04597 L 224.13793,98.850575 V 0 L 0,128.73563 243.67816,270.11494 487.35632,128.73563 Z"
       fill="#808080"
       id="path10"
       style="stroke-width:11.4943" /><path
       class="st0"
       d="M 194.25287,424.13793 106.89655,373.56322 21.83908,422.98851 244.82759,551.72414 V 270.11494 L 0,128.73563 v 257.47127 -1.14943 1.14943 L 85.057471,336.78161 V 235.63218 c 0,-3.44827 4.597701,-5.74712 6.896552,-4.5977 L 195.4023,290.8046 c 3.44827,2.29885 4.5977,4.5977 4.5977,8.04597 V 418.3908 c 1.14943,4.59771 -2.29885,8.04598 -5.74713,5.74713 z"
       id="path12"
       style="stroke-width:11.4943" /></g></svg>
